<svg width="70" height="46" viewBox="0 0 70 46" fill="none" xmlns="http://www.w3.org/2000/svg">
<g id="Logo ">
<rect id="Rectangle 26" x="18.2107" y="12.0755" width="33.8113" height="33.8113" rx="16.9057" fill="#A8C17F"/>
<g id="Vector">
<path d="M59.9625 32.7825C61.9729 33.1582 63.9617 31.9744 64.1139 30.1074C64.3443 27.2825 64.0779 24.4346 63.3172 21.6732C62.2539 17.8127 60.2519 14.2199 57.4597 11.1613C54.6675 8.10258 51.1566 5.65638 47.1873 4.00394C43.2179 2.3515 38.8919 1.53518 34.5298 1.61548C30.1676 1.69577 25.8812 2.67063 21.9882 4.4678C18.0951 6.26498 14.6953 8.83839 12.0406 11.9973C9.38589 15.1563 7.54439 18.8198 6.65256 22.7163C6.01464 25.5035 5.87431 28.3588 6.2294 31.1729C6.46408 33.0328 8.5036 34.1424 10.4957 33.693C12.4878 33.2437 13.669 31.4025 13.524 29.535C13.3831 27.7211 13.517 25.8927 13.9269 24.1021C14.5908 21.2014 15.9617 18.4742 17.9379 16.1225C19.9142 13.7709 22.4451 11.8552 25.3433 10.5173C28.2414 9.1794 31.4323 8.45368 34.6797 8.3939C37.927 8.33413 41.1475 8.94183 44.1024 10.172C47.0573 11.4021 49.6709 13.2231 51.7495 15.5001C53.8282 17.7771 55.3185 20.4517 56.1101 23.3256C56.5988 25.0997 56.8135 26.9217 56.7529 28.7392C56.6905 30.6106 57.9522 32.4067 59.9625 32.7825Z" fill="#A8C17F"/>
<path d="M14.3465 32.5604C14.3465 38.142 13.3963 42.6667 8.80793 42.6667C4.21958 42.6667 0.5 38.142 0.5 32.5604C0.5 26.9789 4.21958 22.4542 8.80793 22.4542C13.3963 22.4542 14.3465 26.9789 14.3465 32.5604Z" fill="#A8C17F"/>
<path d="M55.8862 32.5604C55.8862 38.142 56.8364 42.6667 61.4248 42.6667C66.0131 42.6667 69.7327 38.142 69.7327 32.5604C69.7327 26.9789 66.0131 22.4542 61.4248 22.4542C56.8364 22.4542 55.8862 26.9789 55.8862 32.5604Z" fill="#A8C17F"/>
</g>
</g>
</svg>
