<svg width="100" height="100" viewBox="0 0 100 100" fill="none" xmlns="http://www.w3.org/2000/svg">
<g id="Materials">
<path id="Ellipse 25" opacity="0.76" d="M85.3334 50.0001C85.3334 69.5141 69.5141 85.3334 50 85.3334C30.486 85.3334 14.6667 69.5141 14.6667 50.0001C14.6667 30.486 30.486 14.6667 50 14.6667C69.5141 14.6667 85.3334 30.486 85.3334 50.0001ZM18.2 50.0001C18.2 67.5627 32.4374 81.8001 50 81.8001C67.5627 81.8001 81.8 67.5627 81.8 50.0001C81.8 32.4374 67.5627 18.2001 50 18.2001C32.4374 18.2001 18.2 32.4374 18.2 50.0001Z" fill="#A8C17F"/>
<path id="Ellipse 26" opacity="0.76" d="M76.6666 50.0002C76.6666 64.7278 64.7276 76.6668 50 76.6668C35.2724 76.6668 23.3333 64.7278 23.3333 50.0002C23.3333 35.2726 35.2724 23.3335 50 23.3335C64.7276 23.3335 76.6666 35.2726 76.6666 50.0002ZM27.0666 50.0002C27.0666 62.6659 37.3342 72.9335 50 72.9335C62.6657 72.9335 72.9333 62.6659 72.9333 50.0002C72.9333 37.3344 62.6657 27.0668 50 27.0668C37.3342 27.0668 27.0666 37.3344 27.0666 50.0002Z" fill="#A8C17F"/>
<path id="Polygon 1" d="M50 62.6667L37.9532 53.9143L42.5547 39.7525L57.4452 39.7525L62.0467 53.9143L50 62.6667Z" fill="#A8C17F"/>
</g>
</svg>
