<svg width="100" height="100" viewBox="0 0 100 100" fill="none" xmlns="http://www.w3.org/2000/svg">
<g id="Questions ">
<path id="?" d="M33.748 54.012C33.748 44.652 56.524 48.786 56.524 44.652C56.524 43.404 55.276 42.156 49.738 42.156C43.888 42.156 42.328 43.872 42.016 45.432H12.142C13 33.186 23.686 22.5 50.674 22.5C77.038 22.5 86.008 31.392 86.008 41.376C86.008 55.416 63.232 52.452 63.232 57.054C63.232 58.38 64.012 59.394 64.714 60.408H36.4C35.23 59.004 33.748 56.82 33.748 54.012ZM65.728 72.576C65.728 66.726 61.75 62.67 50.206 62.67C38.818 62.67 34.762 66.726 34.762 72.576C34.762 78.426 38.818 82.482 50.206 82.482C61.75 82.482 65.728 78.426 65.728 72.576Z" fill="#A8C17F"/>
</g>
</svg>
