<svg width="150" height="150" viewBox="0 0 150 150" fill="none" xmlns="http://www.w3.org/2000/svg">
<g id="Sound">
<path id="Subtract" fill-rule="evenodd" clip-rule="evenodd" d="M75 140C110.899 140 140 110.899 140 75C140 39.1015 110.899 10 75 10C39.1015 10 10 39.1015 10 75C10 110.899 39.1015 140 75 140ZM44 115.497C42.4344 114.298 42.3013 112.031 43.6064 110.553C44.9114 109.075 47.1594 108.948 48.7386 110.129C52.3854 112.855 56.4405 115.001 60.7608 116.484C66.2085 118.354 71.9713 119.133 77.72 118.776C83.4687 118.418 89.0907 116.932 94.2651 114.402C98.3686 112.396 102.127 109.764 105.408 106.608C106.829 105.241 109.075 105.089 110.553 106.394C112.031 107.699 112.18 109.965 110.775 111.348C106.862 115.199 102.347 118.399 97.4013 120.817C91.3846 123.759 84.8473 125.486 78.1628 125.902C71.4783 126.317 64.7774 125.412 58.4427 123.238C53.2354 121.45 48.3593 118.834 44 115.497ZM59.9066 30.0357C59.2792 28.1665 57.2493 27.1482 55.4286 27.9048C50.359 30.0116 45.6553 32.9263 41.5037 36.5423C36.4533 40.9411 32.3188 46.2916 29.3363 52.2882C26.3537 58.2848 24.5815 64.8102 24.1208 71.4918C23.742 76.9843 24.2557 82.494 25.6344 87.808C26.1296 89.7165 28.1664 90.7208 30.0356 90.0934C31.9047 89.466 32.8962 87.4444 32.4228 85.5304C31.3296 81.1104 30.9296 76.5398 31.2438 71.9829C31.6401 66.2368 33.1642 60.625 35.7292 55.4679C38.2942 50.3108 41.8498 45.7094 46.1931 41.9264C49.6375 38.9264 53.5238 36.4877 57.7082 34.6926C59.5201 33.9152 60.534 31.9048 59.9066 30.0357ZM110.838 88.4869C110.157 90.2344 108.103 90.9143 106.424 90.0791C104.744 89.2438 104.079 87.21 104.726 85.4494C105.731 82.7108 106.346 79.8383 106.547 76.9166C106.827 72.8631 106.305 68.7943 105.012 64.9424C103.719 61.0905 101.68 57.531 99.0115 54.4671C97.088 52.2587 94.8645 50.3389 92.4105 48.7615C90.8328 47.7474 90.136 45.7243 90.9712 44.045C91.8064 42.3658 93.8546 41.6687 95.452 42.6515C98.6952 44.6468 101.623 47.1251 104.133 50.0064C107.387 53.7428 109.874 58.0837 111.451 62.7811C113.027 67.4785 113.664 72.4405 113.323 77.3838C113.06 81.1956 112.22 84.9388 110.838 88.4869ZM44.937 59.4974C43.2578 58.6622 41.2038 59.342 40.5229 61.0896C39.1405 64.6376 38.3007 68.3808 38.0378 72.1926C37.697 77.1359 38.3331 82.0979 39.9099 86.7953C41.4867 91.4927 43.9733 95.8336 47.2277 99.57C49.7372 102.451 52.6654 104.93 55.9086 106.925C57.506 107.908 59.5542 107.211 60.3894 105.531C61.2246 103.852 60.5278 101.829 58.9501 100.815C56.4961 99.2375 54.2726 97.3177 52.3491 95.1093C49.6805 92.0454 47.6415 88.4859 46.3485 84.634C45.0556 80.7822 44.534 76.7133 44.8134 72.6598C45.0149 69.7381 45.6297 66.8656 46.635 64.127C47.2812 62.3664 46.6162 60.3326 44.937 59.4974ZM75 83C79.4183 83 83 79.4183 83 75C83 70.5817 79.4183 67 75 67C70.5817 67 67 70.5817 67 75C67 79.4183 70.5817 83 75 83Z" fill="black"/>
</g>
</svg>
