<svg width="50" height="50" viewBox="0 0 50 50" fill="none" xmlns="http://www.w3.org/2000/svg">
<g id="tg-icon">
<path id="Vector" d="M25 3C37.15 3 47 12.85 47 25C47 37.15 37.15 47 25 47C12.85 47 3 37.15 3 25C3 12.85 12.85 3 25 3ZM32.589 33.968C32.993 32.727 34.89 20.353 35.123 17.914C35.194 17.176 34.96 16.685 34.504 16.465C33.951 16.2 33.133 16.332 32.182 16.675C30.879 17.145 14.224 24.216 13.262 24.626C12.35 25.014 11.487 25.436 11.487 26.049C11.487 26.48 11.743 26.722 12.447 26.973C13.179 27.234 15.024 27.793 16.115 28.094C17.165 28.384 18.358 28.132 19.028 27.716C19.737 27.275 27.929 21.795 28.516 21.314C29.103 20.834 29.572 21.449 29.092 21.93C28.612 22.41 22.99 27.867 22.248 28.623C21.347 29.54 21.986 30.491 22.591 30.872C23.28 31.307 28.24 34.633 28.987 35.167C29.734 35.701 30.491 35.943 31.185 35.943C31.879 35.942 32.244 35.028 32.589 33.968Z" fill="#A8C17F"/>
</g>
</svg>
