<svg width="100" height="100" viewBox="0 0 100 100" fill="none" xmlns="http://www.w3.org/2000/svg">
<g id="Wireless" clip-path="url(#clip0_117_162)">
<circle id="Ellipse 17" cx="50" cy="50" r="6" fill="#A8C17F"/>
<path id="Ellipse 18" d="M54.4396 33.0997C54.7969 31.7663 54.0056 30.3791 52.638 30.1908C50.3523 29.8762 48.0229 29.9587 45.7538 30.441C42.6671 31.0971 39.7796 32.4743 37.3273 34.4602C34.8749 36.4461 32.9274 38.9841 31.6439 41.8669C30.7004 43.9862 30.1354 46.2475 29.9679 48.5487C29.8677 49.9255 31.0601 50.9879 32.4387 50.9157C33.8172 50.8434 34.8546 49.6609 35.012 48.2894C35.1855 46.7787 35.5883 45.2982 36.2107 43.9002C37.1733 41.7381 38.634 39.8346 40.4733 38.3452C42.3125 36.8558 44.4782 35.8228 46.7931 35.3307C48.29 35.0126 49.8219 34.9264 51.3357 35.0708C52.7099 35.2019 54.0823 34.4331 54.4396 33.0997Z" fill="#A8C17F"/>
<path id="Ellipse 21" d="M44.8973 66.9003C44.54 68.2337 45.3313 69.6209 46.6989 69.8092C48.9846 70.1238 51.314 70.0413 53.5831 69.559C56.6698 68.9029 59.5573 67.5257 62.0096 65.5398C64.462 63.5539 66.4095 61.0159 67.693 58.1331C68.6366 56.0138 69.2015 53.7525 69.369 51.4513C69.4692 50.0745 68.2768 49.0121 66.8983 49.0843C65.5197 49.1566 64.4823 50.3391 64.3249 51.7106C64.1514 53.2213 63.7486 54.7018 63.1262 56.0998C62.1636 58.2619 60.7029 60.1654 58.8637 61.6548C57.0244 63.1442 54.8588 64.1772 52.5438 64.6693C51.0469 64.9874 49.515 65.0736 48.0012 64.9292C46.627 64.7981 45.2546 65.5669 44.8973 66.9003Z" fill="#A8C17F"/>
<path id="Ellipse 19" d="M56.5451 24.337C56.9671 22.7622 56.0333 21.1278 54.4243 20.8652C50.817 20.2764 47.1229 20.3613 43.5311 21.1247C38.9743 22.0933 34.7114 24.1266 31.091 27.0584C27.4705 29.9901 24.5954 33.7371 22.7006 37.993C21.207 41.3476 20.3559 44.9433 20.1819 48.5941C20.1042 50.2226 21.5087 51.4758 23.1368 51.3905C24.765 51.3052 25.9964 49.912 26.1147 48.286C26.3125 45.5681 26.9798 42.8974 28.0942 40.3944C29.6101 36.9897 31.9102 33.9921 34.8065 31.6467C37.7029 29.3013 41.1132 27.6747 44.7586 26.8998C47.4386 26.3301 50.1898 26.2327 52.8893 26.6043C54.5045 26.8267 56.1232 25.9118 56.5451 24.337Z" fill="#A8C17F"/>
<path id="Ellipse 22" d="M42.792 75.663C42.3701 77.2378 43.3038 78.8722 44.9129 79.1348C48.5201 79.7236 52.2142 79.6387 55.806 78.8753C60.3629 77.9067 64.6258 75.8734 68.2462 72.9416C71.8666 70.0099 74.7418 66.2629 76.6366 62.007C78.1302 58.6524 78.9812 55.0567 79.1553 51.4059C79.2329 49.7774 77.8285 48.5242 76.2003 48.6095C74.5722 48.6948 73.3408 50.088 73.2224 51.714C73.0246 54.4319 72.3574 57.1026 71.243 59.6056C69.7271 63.0103 67.427 66.0079 64.5306 68.3533C61.6343 70.6987 58.224 72.3253 54.5785 73.1002C51.8985 73.6699 49.1474 73.7673 46.4478 73.3957C44.8327 73.1733 43.214 74.0882 42.792 75.663Z" fill="#A8C17F"/>
<path id="Ellipse 20" d="M58.8594 15.6991C59.2415 14.2732 58.3964 12.7978 56.9473 12.5164C51.9261 11.5413 46.7506 11.5834 41.7297 12.6506C35.8355 13.9034 30.3216 16.5334 25.6387 20.3256C20.9557 24.1178 17.2368 28.9644 14.7859 34.4692C12.698 39.1586 11.5809 44.2122 11.4906 49.3264C11.4646 50.8024 12.7321 51.9358 14.2062 51.8585C15.6804 51.7812 16.8014 50.5222 16.8443 49.0466C16.9683 44.7762 17.9248 40.562 19.6694 36.6435C21.7772 31.9094 24.9755 27.7413 29.0029 24.48C33.0302 21.2188 37.7722 18.9569 42.8411 17.8795C47.0367 16.9877 51.3576 16.9283 55.5605 17.6948C57.0127 17.9597 58.4774 17.1249 58.8594 15.6991Z" fill="#A8C17F"/>
<path id="Ellipse 23" d="M40.4775 84.3009C40.0954 85.7268 40.9405 87.2022 42.3896 87.4836C47.4108 88.4587 52.5863 88.4166 57.6072 87.3494C63.5014 86.0966 69.0153 83.4666 73.6982 79.6744C78.3812 75.8822 82.1001 71.0356 84.551 65.5308C86.6389 60.8414 87.756 55.7878 87.8463 50.6736C87.8723 49.1976 86.6048 48.0642 85.1307 48.1415C83.6565 48.2188 82.5355 49.4778 82.4926 50.9534C82.3686 55.2238 81.4121 59.438 79.6675 63.3565C77.5597 68.0906 74.3614 72.2587 70.3341 75.52C66.3067 78.7812 61.5648 81.0431 56.4958 82.1205C52.3002 83.0123 47.9793 83.0717 43.7764 82.3052C42.3242 82.0403 40.8595 82.8751 40.4775 84.3009Z" fill="#A8C17F"/>
</g>
<defs>
<clipPath id="clip0_117_162">
<rect width="100" height="100" fill="white"/>
</clipPath>
</defs>
</svg>
